<?xml version="1.0" encoding="UTF-8"?>
<svg id="Layer_1" data-name="Layer 1" xmlns="http://www.w3.org/2000/svg" viewBox="0 0 49.96 50">
  <path d="M47.9,33.26c-.23,0-.45-.05-.66-.13-.22-.09-.4-.22-.57-.38-.32-.32-.51-.76-.51-1.22s.18-.9.51-1.22c.08-.08.16-.15.27-.22.09-.06.2-.12.3-.16.1-.03.21-.07.32-.09.55-.12,1.15.07,1.56.47.32.32.51.76.51,1.22s-.18.89-.51,1.22c-.33.32-.76.51-1.22.51Z"/>
  <path d="M38.67,50H10.97c-6.05,0-10.97-4.92-10.97-10.97V11.33C0,5.28,4.92.36,10.97.36h27.7c6.05,0,10.97,4.92,10.97,10.97v12.94c0,.96-.78,1.73-1.73,1.73s-1.73-.78-1.73-1.73v-12.94c0-4.14-3.37-7.5-7.5-7.5H10.97c-4.14,0-7.5,3.37-7.5,7.5v27.7c0,4.14,3.37,7.5,7.5,7.5h27.7c4.14,0,7.5-3.37,7.5-7.5,0-.96.78-1.73,1.73-1.73s1.73.78,1.73,1.73c0,6.05-4.92,10.97-10.97,10.97Z"/>
  <path d="M24.82,38.46c-7.32,0-13.27-5.96-13.27-13.27s5.96-13.27,13.27-13.27,13.27,5.96,13.27,13.27-5.96,13.27-13.27,13.27ZM24.82,15.37c-5.41,0-9.81,4.4-9.81,9.81s4.4,9.81,9.81,9.81,9.81-4.4,9.81-9.81-4.4-9.81-9.81-9.81Z"/>
  <path d="M39.25,14.22c-1.27,0-2.31-1.04-2.31-2.31s1.04-2.31,2.31-2.31,2.31,1.04,2.31,2.31-1.04,2.31-2.31,2.31ZM39.25,10.75c-.64,0-1.15.52-1.15,1.15s.52,1.15,1.15,1.15,1.15-.52,1.15-1.15-.52-1.15-1.15-1.15Z"/>
</svg>