<?xml version="1.0" encoding="UTF-8"?>
<svg id="Layer_1" data-name="Layer 1" xmlns="http://www.w3.org/2000/svg" viewBox="0 0 158.01 80.7">
  <defs>
    <style>
      .cls-1 {
        fill: #231f20;
      }

      .cls-2 {
        fill: #f2eee8;
      }

      .cls-3 {
        fill: #6d0000;
      }
    </style>
  </defs>
  <g>
    <circle class="cls-3" cx="66.68" cy="38.09" r="3.27"/>
    <g>
      <path class="cls-2" d="M68.33,36.44c-.4-.02-.8.18-1.05.48-.17.21-.29.45-.42.68-.22.39-.45.78-.67,1.17-.11.2-.23.4-.34.6h0s0-.04,0-.06c0-.24-.05-.47-.16-.68-.02-.04-.04-.07-.06-.11-.03-.05-.05-.11-.06-.17-.04-.15-.06-.3-.04-.46.03-.16.11-.27.23-.38-.02,0-.03,0-.05,0-.23.04-.44.16-.54.38-.1.2-.13.44-.05.66.05.14.13.28.19.42.06.13.1.28.13.42,0,.03.04.35.04.35h.38c.05,0,.19,0,.21,0,0,0,.03-.05.03-.06.03-.06.06-.11.1-.17.2-.35.4-.71.6-1.06.11-.19.21-.38.32-.56.09-.17.17-.35.28-.51.13-.19.3-.11.48-.06.33.09.88.02.9-.41.01-.26-.19-.43-.44-.45Z"/>
      <circle class="cls-2" cx="65.08" cy="37.42" r=".21"/>
    </g>
  </g>
  <path class="cls-1" d="M83.21,28.82c-.78,0-1.37-.05-1.77-.16-.24-.05-.38-.17-.42-.36-.01-.05-.02-.19-.03-.38-.27-.03-.53-.13-.78-.19-.36-.09-.7-.22-1.06-.33-.51-.15-1.03-.29-1.53-.48,0,.97-.05,1.52-.14,1.64-.09.12-.65.19-1.67.22-.54,0-.8.14-.8.43,0,.2.15.3.44.3.19,0,.35-.05.48-.16h4.18c.54,0,1.21.03,2.01.08.67.05.99.08.96.08.45,0,.68-.12.68-.36,0-.21-.19-.32-.56-.32Z"/>
  <path class="cls-1" d="M68.77,23.42c.12.03.24.07.36.11l.31-.96c-.11-.07-.22-.14-.34-.2-.03-.01-.05-.03-.08-.04,0,0,0,0,0,0-.01,0-.03-.01-.04-.02-.06-.02-.12-.04-.18-.05-.03,0-.06-.01-.09-.02,0,0,0,0,0,0,0,0,0,0,0,0-.02,0-.03,0-.05,0-.02,0-.05,0-.07,0-.11.35-.23.71-.34,1.07.18.02.36.06.53.11Z"/>
  <path class="cls-1" d="M68.64,23.89c-.14-.04-.29-.07-.44-.09-.01,0-.03,0-.04,0-.02,0-.04,0-.07,0-.09.29-.18.57-.27.87-.1-.23-.17-.62-.34-.79s-.53-.22-.76-.25c-.8-.12-1.77-.22-2.56-.02.03.31.24.67.35.97.13.35.26.7.39,1.06.3.8.59,1.6.89,2.41.13.4.27.76.4,1.08.19.51.37.76.56.76.27,0,.62-.74,1.04-2.21.35-1.1.62-1.92.8-2.46l.39-1.2c-.11-.04-.22-.08-.34-.11Z"/>
  <g>
    <path class="cls-1" d="M8.03,30.23v-.06c-.08,0-.17-.01-.26-.02-.77-.05-1.43-.08-1.95-.08H1.85c-.21.11-.44.16-.69.16-.8,0-1.16-.51-1.16-1.02,0-.27.11-1.15,1.52-1.15.54-.01.86-.04,1.05-.06.02-.2.03-.54.03-1.1v-12.17c-.01-.29-.02-.5-.03-.65h-1.41c-.8,0-1.16-.5-1.16-1,0-.35.18-.94,1.36-1,1.65-.07,3.07-.46,4.23-1.15l1.05-.62.35.67c.27.52.4,1.32.4,2.53v12.91c0,.92.02,1.36.03,1.57.29.06.74.12,1.5.12.95,0,1.28.56,1.28,1.04,0,.18-.07,1.08-1.4,1.08h-.76ZM4.66,6.65c-.7,0-1.3-.24-1.79-.7-.49-.47-.74-1.07-.74-1.74,0-1.66.92-2.61,2.53-2.61s2.53.92,2.53,2.53-.92,2.53-2.53,2.53Z"/>
    <path class="cls-1" d="M17.95,30.59c-.78,0-1.11-.9-1.24-1.23-.13-.31-.27-.69-.41-1.11-2.01-5.43-2.79-7.51-3.09-8.26h-.03l-.17-.48c-1.81-5.2-2.29-6.16-2.41-6.33-.03-.02-.19-.06-.42-.06h-1.07c-.77,0-1.12-.49-1.12-.98,0-.16.06-.98,1.28-.98h7.67c.77,0,1.12.5,1.12,1,0,1.04-1.38,1.04-1.97,1.04-.19,0-.34,0-.45.02.04.16.11.38.22.66.43,1.06,1.28,3.4,2.52,6.92.21.61.4,1.17.58,1.67.51-1.58.97-2.99,1.4-4.21,1.08-3.19,1.49-4.55,1.65-5.13h-.68c-1.21,0-1.24-.9-1.24-1s.03-.96,1.2-.96h4.29c.41,0,1.65,0,1.65.96,0,.37-.19,1-1.48,1h-.96c-.08,0-.26,0-.47.46l-.45,1.45-3.38,10.39c-.19.55-.46,1.36-.8,2.45-.6,2.05-1.02,2.72-1.73,2.72Z"/>
    <path class="cls-1" d="M78.95,6.65c-.7,0-1.3-.24-1.79-.7-.48-.47-.74-1.07-.74-1.74,0-1.66.92-2.61,2.53-2.61s2.53.92,2.53,2.53-.92,2.53-2.53,2.53Z"/>
    <path class="cls-1" d="M80.82,27.22h-.11c-.52-.08-1.03-.29-1.48-.48l-.28-.11c-.3-.12-.59-.24-.88-.38-.15-.07-.29-.14-.43-.21-.19-.08-.47-.19-.63-.47-.14-.24-.12-.5-.1-.66v-10.19c0-.29-.02-.5-.03-.65h-1.41c-.8,0-1.16-.5-1.16-1,0-.35.18-.94,1.36-1,1.65-.07,3.07-.46,4.23-1.15l1.05-.62.35.67c.27.52.4,1.33.4,2.54v12.48c0,.15.01.31,0,.45-.06.58-.48.77-.81.77h-.05Z"/>
    <path class="cls-1" d="M34.98,30.59c-2.61,0-4.82-.96-6.57-2.84-1.74-1.87-2.62-4.21-2.62-6.96s.84-5.26,2.48-7.18c1.68-1.95,3.8-2.94,6.31-2.94,2.07,0,3.84.62,5.25,1.84,1.43,1.24,2.21,2.85,2.3,4.79l.03.64-.64.1c-.75.12-1.7.18-2.83.18-.23,0-.46,0-.71,0h-2.8c-.17,0-1.57.04-4.19.1-.07.63-.11,1.24-.11,1.82,0,2.53.48,4.48,1.41,5.81.9,1.26,2.13,1.88,3.77,1.88.91,0,1.63-.19,2.14-.58.56-.42,1.19-1.27,1.89-2.54.21-.43.61-.69,1.07-.69.61,0,1.04.41,1.04,1,0,.42-.22.96-.73,1.8-.44.73-.9,1.34-1.37,1.8-1.28,1.31-3.01,1.98-5.13,1.98ZM37.22,16.09c-.29-3.01-1.65-3.38-2.69-3.38-.61,0-2.37,0-3.18,3.38h5.86Z"/>
    <path class="cls-1" d="M45.86,40.51c-.82,0-1.52-.25-2.07-.75-.56-.51-.86-1.19-.86-1.98,0-.7.25-1.31.72-1.76.47-.45,1.08-.68,1.8-.68.95,0,1.69.4,2.15,1.17.12-.24.28-.6.48-1.11.7-1.83,1.26-3.5,1.68-4.97-1.95-5.11-3.62-9.62-4.98-13.41-.93-2.55-1.29-3.41-1.42-3.7-.09,0-.33-.04-.81-.04-1.47,0-1.78-.61-1.78-1.12,0-.48.33-1.04,1.24-1.04.31,0,.78.03,1.43.08.59.05,1.04.08,1.34.08h.72c.52-.03,1.3-.07,2.3-.11l2.06-.05c.82,0,1.18.53,1.18,1.06,0,1-1.37,1.04-2.18,1.06-.19,0-.33.02-.44.03.1.31.29.86.67,1.84.22.64.44,1.28.68,1.95l.7,2c.18.59.67,1.93,1.45,4.01.06.13.11.27.17.41,2.27-7.16,2.96-9.55,3.14-10.29-.22-.01-.6-.03-1.25-.03-.77,0-1.12-.54-1.12-1.04,0-.46.31-1,1.2-1,.18,0,.33.02.47.06.85.06,1.55.1,2.1.1h1.12c.55,0,.69-.04.71-.04.21-.08.48-.12.78-.12.74,0,1.08.52,1.08,1.01,0,.98-1.24,1.03-1.65,1.05-.6.03-.85.07-.93.09,0,.02-.05.11-.11.28l-.29.76-.31.97c-.37,1.22-.93,3.06-1.68,5.49-2.11,6.79-3.89,12.12-5.27,15.86-.97,2.58-2.39,3.88-4.21,3.88Z"/>
    <path class="cls-1" d="M62.78,22.02c-.41-1.09-.64-1.7-.77-2.04h-.03l-.17-.48c-1.81-5.2-2.29-6.16-2.41-6.33-.03-.02-.19-.06-.42-.06h-1.07c-.77,0-1.12-.49-1.12-.98,0-.16.06-.98,1.28-.98h7.67c.77,0,1.12.5,1.12,1,0,1.04-1.38,1.04-1.96,1.04-.19,0-.34,0-.45.02.04.16.11.38.22.66.43,1.06,1.26,3.33,2.52,6.92l.52,1.52-1.03-.02c-.23,0-.46-.01-.69-.02-.28-.01-.56-.02-.84-.02-.17,0-.34,0-.51.02-.24.02-.63.05-.88.16l-.7.32-.27-.72Z"/>
    <path class="cls-1" d="M69.31,22.58c-.12-.06-.24-.12-.36-.18-.06-.03-.15-.04-.25-.06l-.87-.1.27-.84c.38-1.15.73-2.21,1.05-3.16,1.08-3.19,1.49-4.55,1.65-5.13h-.68c-1.21,0-1.24-.9-1.24-1s.03-.96,1.2-.96h4.29c.41,0,1.65,0,1.65.96,0,.37-.19,1-1.48,1h-.96c-.07,0-.26,0-.47.46l-.45,1.45-2.58,7.95-.76-.4Z"/>
    <path class="cls-1" d="M91.88,30.59c-1.03,0-2.21-.34-3.63-1.04-.34-.18-.52-.21-.6-.21h0s-.08.06-.16.29c-.27.83-.82.95-1.11.95-.59,0-1-.43-1-1.04v-5.38c0-.8.5-1.16,1-1.16.45,0,1.01.29,1.08,1.1.14,1.08.45,1.94.9,2.54.93,1.23,2.15,1.82,3.72,1.82.78,0,1.38-.21,1.83-.65.45-.43.66-.99.66-1.73,0-.84-.25-1.49-.77-1.97-.32-.3-.61-.51-.85-.63-.2-.09-.82-.35-2.65-1.04-3.27-1.24-4.92-3.17-4.92-5.75,0-1.69.58-3.13,1.72-4.29,1.15-1.16,2.58-1.74,4.26-1.74.61,0,1.46.17,2.6.51.2.06.37.09.51.09.24,0,.29-.05.34-.26.25-.86.82-.95,1.06-.95.59,0,1,.43,1,1.04v1.93c-.03.64.04,1.64.2,3.01v.16c0,.61-.42,1.04-1.04,1.04-.72,0-1.01-.78-1.29-1.73-.25-.84-.68-1.49-1.31-2-.61-.49-1.3-.73-2.1-.73-.72,0-1.3.21-1.75.65-.45.43-.66.95-.66,1.61,0,.38,0,1.52,2.23,2.39,2.91,1.15,4.72,2.09,5.54,2.89,1.11,1.08,1.67,2.4,1.67,3.94,0,1.75-.64,3.26-1.92,4.48-1.26,1.21-2.79,1.83-4.55,1.83Z"/>
    <path class="cls-1" d="M112.04,30.51c-.46,0-.96-.33-.96-1.04v-.42c-1.2.97-2.68,1.47-4.42,1.47-2.2,0-3.81-.67-4.8-2.01-.42-.58-.67-1.11-.75-1.63-.05-.28-.11-.94-.11-3.35v-9.13c0-.63-.03-.97-.05-1.14-.1-.02-.26-.04-.51-.05h-.49c-.09,0-.21.01-.33.01-.36,0-.63-.05-.86-.15-.39-.17-.62-.51-.62-.91,0-.3.14-1,1.4-1,.5,0,1.22.04,2.14.11.42.03.67.05.75.05.9,0,1.75-.05,2.51-.15l.82-.11v11.97c0,2.43.19,3.41.35,3.81.19.47.61,1.11,1.94,1.11,1.17,0,1.96-.44,2.51-1.4.42-.74.63-1.99.63-3.72v-6.19c0-.86-.04-1.5-.11-1.91v-.06s-.01-1.38-.01-1.38c0-.02,0-.04,0-.06-.09,0-.24-.02-.44-.02h-.29c-.53,0-.93-.03-1.23-.11-.8-.21-.89-.75-.89-.97,0-.64.53-.96,1.56-.96h6.18v11.92c0,2.34.06,3.22.11,3.54.03.2.08.29.1.31.13.02.6.08,2.05.08.94,0,1.2.63,1.2,1,0,.64-.53.99-1.57,1.04-1.97.13-3.73.56-5.22,1.29-.21.1-.4.15-.6.15Z"/>
    <path class="cls-1" d="M123.83,30.59c-1.33,0-2.44-.41-3.32-1.21-.9-.82-1.35-1.89-1.35-3.16,0-2.48,1.46-4.46,4.34-5.87.89-.42,2.3-.83,4.29-1.23v-.41c0-2.83-.18-3.97-.33-4.44-.34-1.07-1.02-1.55-2.21-1.55-.77,0-1.4.2-1.9.6-.35.29-.56.61-.64.99.37.06.79.25,1.18.72.37.45.55.97.55,1.54,0,1.58-.9,2.49-2.47,2.49-.81,0-1.5-.28-2.03-.84-.53-.55-.8-1.25-.8-2.08,0-1.46.58-2.73,1.72-3.78,1.23-1.11,2.94-1.68,5.07-1.68,3.25,0,5.3.96,6.09,2.85.28.72.42,2.01.42,3.93v7.51c0,1.57.02,1.98.03,2.08.11.82.37.82.45.82.55,0,.97-.18,1.31-.56.31-.34.68-.68,1.14-.68.53,0,.92.4.92.96,0,1-1.03,1.66-1.8,2.06-1.05.55-2.08.82-3.07.82-1.56,0-2.66-.62-3.21-1.79-1.1,1.27-2.57,1.91-4.39,1.91ZM127.79,21.31c-1.4.39-2.43.86-3.07,1.41-.7.6-1.04,1.39-1.04,2.41,0,.68.18,1.21.55,1.63.35.4.77.58,1.3.58.85,0,1.54-.51,2.1-1.55.02-.05.15-.47.15-2.47v-2.01Z"/>
    <path class="cls-1" d="M135.18,30.19c-.32,0-.57-.07-.78-.21-.28-.19-.43-.5-.43-.85s.24-.98,1.16-.98h1.04c.2,0,.33-.01.42-.03,0-.28.02-1,.02-2.87V4.81c0-.57-.01-.88-.02-1.05h-1.42c-.95,0-1.28-.57-1.28-1.06,0-1,1.28-1.05,1.7-1.06,1.17-.07,2.29-.35,3.3-.82l.84-.4,1.11-.42.21.76c.23.85.33,2.07.31,3.74v22.52c0,.54,0,.86.01,1.05.19.01.52.02,1.09.04h0c1.07,0,1.62.34,1.62,1,0,.54-.38,1.08-1.24,1.08h-.48c-.06,0-.77-.03-2.16-.08h-1.22c-.21,0-1.28.02-3.2.06-.13.01-.32.02-.5.02,0,0-.06,0-.11,0Z"/>
    <path class="cls-1" d="M151.48,30.59c-1.03,0-2.21-.34-3.63-1.04-.34-.18-.52-.21-.6-.21h0s-.08.06-.16.29c-.27.83-.82.95-1.11.95-.59,0-1-.43-1-1.04v-5.38c0-.8.5-1.16,1-1.16.45,0,1,.29,1.08,1.1.14,1.08.45,1.94.9,2.54.93,1.23,2.15,1.82,3.72,1.82.78,0,1.38-.21,1.83-.65.45-.43.66-.99.66-1.73,0-.84-.25-1.49-.77-1.97-.32-.3-.61-.51-.85-.63-.2-.09-.82-.35-2.65-1.04-3.27-1.24-4.92-3.17-4.92-5.75,0-1.69.58-3.14,1.72-4.29,1.14-1.16,2.58-1.74,4.26-1.74.61,0,1.46.17,2.6.51.2.06.37.09.51.09.24,0,.29-.05.34-.26.25-.86.82-.95,1.06-.95.59,0,1,.43,1,1.04v1.93c-.03.63.04,1.63.2,3.01v.16c0,.61-.42,1.04-1.04,1.04-.72,0-1.01-.78-1.29-1.73-.25-.84-.68-1.49-1.31-2-.61-.49-1.3-.73-2.1-.73-.72,0-1.3.21-1.75.65-.45.43-.66.95-.66,1.61,0,.38,0,1.52,2.23,2.39,2.9,1.15,4.72,2.09,5.54,2.89,1.11,1.08,1.67,2.4,1.67,3.94,0,1.75-.64,3.26-1.92,4.48-1.26,1.21-2.79,1.83-4.55,1.83Z"/>
  </g>
  <g>
    <path class="cls-3" d="M80.66,44.31c-.92-.02-1.43-.45-1.69-.8-.15-.2-.25-.42-.33-.67-1,.97-2.06,1.48-3.12,1.48-.95,0-1.76-.42-2.27-1.18-.93-1.38-.81-3.66.32-6.42,1.66-4.1,4.64-5.94,6.85-5.94.83,0,1.39.21,1.77.53l.53-1.41.11-.26c-2.08-.3-4.72-1.22-7.5-2.19-3.83-1.34-7.78-2.72-10.79-2.72-.64,0-1.21.07-1.71.2-.81.21-1.37.63-1.43,1.08-.05.35.23.73.77,1.05.64.38.74.96.63,1.37-.14.52-.64.89-1.19.89-.24,0-.48-.07-.68-.21-1.08-.64-1.63-1.76-1.44-2.97.26-1.69,1.86-3.11,4.07-3.62.8-.19,1.64-.28,2.49-.28,3.59,0,7.03,1.6,10.35,3.15,2.48,1.15,4.81,2.24,6.93,2.51,0,0,.22.03.25.04,2.03-3.93,4.62-4.99,5.87-4.99s2.06.76,2.11,1.93c.08,1.73-1.65,4.27-5.12,4.79l-4.16,11.2c-.15.4-.23.67-.27.84.51-.24,1.36-1.08,2.45-2.87l.4-.66,1.45,1.04-.32.56c-1.7,2.99-3.54,4.56-5.34,4.56h-.02ZM80.8,32.73c-.6,0-2.37,1.18-3.72,4.67-1.25,3.23-.93,4.42-.78,4.56.48-.01,2.27-1.1,3.59-4.6l.33-.85.04-.15c1.13-3.1.68-3.6.67-3.6,0,0-.03-.02-.13-.02ZM89.46,24.67c-.14,0-.86.16-2.14,2.89,1.09-.47,1.75-1.26,2.04-1.97.22-.54.16-.87.11-.93h0Z"/>
    <path class="cls-3" d="M87.46,44.31c-1.26,0-2.32-.55-2.99-1.55-.98-1.46-.98-3.61.01-6.05,1.93-4.69,5.31-5.94,7.01-5.94,1.21,0,2.17.49,2.72,1.38.58.94.58,2.19,0,3.34-1.09,2.06-3.79,3.59-7,3.99-.06.87.09,1.57.44,1.98.21.25.49.37.83.37,1.11,0,2.73-1.3,3.75-3.02l.38-.65,1.51.99-.34.59c-1.68,2.9-3.98,4.56-6.33,4.56ZM91.72,32.65c-1.02,0-2.67,1.18-3.96,4.52-.02.05-.04.11-.06.16,1.92-.64,3.53-2.15,4.03-3.15.4-.79.35-1.26.26-1.42-.02-.03-.07-.11-.27-.11Z"/>
    <path class="cls-3" d="M95.46,44.31c-1.79,0-3.34-1.07-3.7-2.54-.33-1.34.15-3.05,1.71-3.71.36-.15.73-.23,1.09-.23,1.15,0,1.92.78,1.99,1.53.05.37-.04.73-.26.99-.18.21-.44.33-.71.33-.23,0-.44-.09-.61-.24-.16.13-.41.43-.47.92-.05.34.02.62.19.82.17.2.45.31.81.31.41,0,1.74-.12,1.92-1.72.08-.74-.39-1.47-.93-2.31-.64-1-1.37-2.14-1.37-3.63,0-2,1.69-4.06,4.51-4.06,1.26,0,2.25.5,2.73,1.37.42.76.38,1.7-.1,2.46-.39.64-1.07,1.02-1.82,1.02-.71,0-1.35-.34-1.71-.91-.28-.47-.32-.98-.11-1.39-.11.18-.17.38-.17.56,0,.91.46,1.62.99,2.44.6.92,1.28,1.97,1.28,3.42,0,2.7-2.76,4.58-5.25,4.58ZM99.86,32.57c-.19,0-.37.04-.54.11.16-.06.33-.09.51-.09.09,0,.18,0,.27.02.01,0,.03,0,.04,0-.05-.03-.14-.05-.28-.05Z"/>
    <path class="cls-3" d="M102.95,44.31c-.74-.01-1.35-.32-1.72-.87-.57-.85-.51-2.16.17-3.89l1.84-4.99c.55-1.27.71-2.37.75-2.78l.06-.59,4.28-.39-3.71,10.04c-.15.39-.23.66-.27.84.47-.23,1.31-1,2.42-2.86l.38-.65,1.52.99-.34.59c-1.75,3.02-3.56,4.56-5.36,4.56h-.01Z"/>
    <path class="cls-3" d="M108.09,49.99c-1.82,0-3.34-1.05-3.7-2.54-.33-1.34.15-3.05,1.71-3.71.29-.12.58-.2.87-.22-.11-.11-.21-.24-.3-.38-.93-1.38-.83-3.66.29-6.42,1.69-4.11,4.67-5.94,6.88-5.94.71,0,1.21.16,1.58.39l4.02-.37-4.95,13.36c-1.3,3.6-3.74,5.83-6.39,5.83ZM107.59,46.1c-.16.13-.41.42-.47.91-.05.35.02.65.19.85.17.2.45.31.8.31,1.03,0,2.12-2.68,2.7-4.11.05-.11.1-.23.15-.37-.67.42-1.35.63-2.04.63h-.03c.16.22.25.47.28.72.05.36-.04.73-.26.98-.18.21-.44.33-.71.33-.24,0-.45-.09-.62-.24ZM114.22,32.73c-.6,0-2.37,1.18-3.72,4.67-1.25,3.23-.93,4.42-.78,4.56.45-.01,2.18-1.04,3.49-4.35l.49-1.35c1.1-3.02.66-3.49.65-3.5,0,0-.05-.02-.13-.02Z"/>
    <path class="cls-3" d="M118.71,34.55c.42-.97.69-1.98.74-2.75l.04-.61,4.3-.39-.63,1.68c1.18-1.1,2.34-1.71,3.34-1.71.95.02,1.63.33,2.03.93.64.96.5,2.55-.46,4.97l-1.52,4.16c-.15.4-.23.67-.27.84.47-.23,1.31-1,2.42-2.86l.38-.65,1.51.99-.33.59c-1.7,2.99-3.55,4.56-5.36,4.56h-.01c-.74-.01-1.35-.32-1.72-.87-.57-.85-.51-2.16.17-3.89l1.36-3.74c.58-1.5.64-2.13.63-2.37-1.25.24-4.03,3.99-5.12,6.96l-1.43,3.82-3.77.13,3.7-9.8Z"/>
    <path class="cls-3" d="M137.8,44.31c-1.1,0-2.09-.54-2.73-1.48-.99-1.47-1-3.7-.02-6.12,1.69-4.11,4.67-5.94,6.88-5.94,1.25,0,2.24.5,2.72,1.38.43.77.39,1.73-.09,2.5-.39.63-1.06,1.02-1.81,1.02s-1.36-.35-1.73-.94c-.28-.45-.31-.98-.08-1.41.02-.04.05-.08.07-.12-.92.67-1.91,1.96-2.69,3.97-.8,2.07-.58,3.54-.11,4.23.14.2.37.44.7.44,1.03,0,2.38-1.16,3.52-3.02l.4-.66,1.45,1.04-.32.56c-1.68,2.94-3.87,4.56-6.18,4.56ZM142.45,32.68c.06,0,.11,0,.14-.02-.04,0-.09,0-.16,0-.04,0-.08,0-.11,0,.04,0,.09.01.13.02Z"/>
    <path class="cls-3" d="M146.17,44.31c-1.2,0-2.21-.51-2.84-1.45-.96-1.43-.93-3.61.1-6.15,1.93-4.69,5.31-5.94,7.01-5.94,1.02,0,1.9.47,2.47,1.32.96,1.43.92,3.72-.12,6.28-1.52,3.72-4.55,5.94-6.61,5.94ZM150.17,32.65c-.45,0-2.04.83-3.46,4.52-.86,2.23-.72,3.67-.31,4.28.18.27.43.39.77.39.48,0,2.07-.92,3.09-5,.55-2.22.45-3.65.1-4.09-.06-.07-.1-.1-.2-.1Z"/>
    <path class="cls-3" d="M155.09,44.31c-.63,0-1.17-.26-1.51-.73-.38-.52-.46-1.24-.23-1.97.38-1.25,1.63-2.24,2.84-2.24.6,0,1.11.25,1.44.69.38.51.47,1.23.25,1.97-.46,1.33-1.63,2.27-2.79,2.27Z"/>
  </g>
</svg>